<svg width="102" height="48" viewBox="0 0 102 48" fill="none" xmlns="http://www.w3.org/2000/svg">
<path fill-rule="evenodd" clip-rule="evenodd" d="M24.3377 0V7.09871L24.3377 7.09863L24.3377 29.1833H24.3376L24.3376 48H0L15.3372 29.1833H6.33691L19.1946 13.4085H13.4086L24.3377 0Z" fill="black"/>
<path d="M42.1776 17.592V27H39.0416V17.592H36.4656V14.936H44.7536V17.592H42.1776ZM49.2845 20.328H49.8765C50.4952 20.328 50.9699 20.2 51.3005 19.944C51.6312 19.688 51.7965 19.32 51.7965 18.84C51.7965 18.36 51.6312 17.992 51.3005 17.736C50.9699 17.48 50.4952 17.352 49.8765 17.352H49.2845V20.328ZM56.1805 27H52.2765L49.2845 22.36V27H46.1485V14.936H51.0285C51.7005 14.936 52.2872 15.0373 52.7885 15.24C53.2899 15.432 53.7005 15.6987 54.0205 16.04C54.3512 16.3813 54.5965 16.776 54.7565 17.224C54.9272 17.672 55.0125 18.152 55.0125 18.664C55.0125 19.5813 54.7885 20.328 54.3405 20.904C53.9032 21.4693 53.2525 21.8533 52.3885 22.056L56.1805 27ZM64.0523 22.52L62.6443 18.504L61.2363 22.52H64.0523ZM64.8843 24.904H60.4043L59.6843 27H56.3403L60.9323 14.936H64.3563L68.9483 27H65.6043L64.8843 24.904ZM73.4564 14.936V27H70.3204V14.936H73.4564ZM79.1126 14.936V24.344H82.8726V27H75.9766V14.936H79.1126ZM40.7376 37.592H45.2656V32.936H48.4016V45H45.2656V40.024H40.7376V45H37.6016V32.936H40.7376V37.592ZM53.6658 38.968C53.6658 39.448 53.7564 39.8907 53.9378 40.296C54.1191 40.7013 54.3644 41.0533 54.6738 41.352C54.9831 41.6507 55.3404 41.8853 55.7458 42.056C56.1618 42.216 56.5991 42.296 57.0578 42.296C57.5164 42.296 57.9484 42.216 58.3538 42.056C58.7698 41.8853 59.1324 41.6507 59.4418 41.352C59.7618 41.0533 60.0124 40.7013 60.1938 40.296C60.3751 39.8907 60.4658 39.448 60.4658 38.968C60.4658 38.488 60.3751 38.0453 60.1938 37.64C60.0124 37.2347 59.7618 36.8827 59.4418 36.584C59.1324 36.2853 58.7698 36.056 58.3538 35.896C57.9484 35.7253 57.5164 35.64 57.0578 35.64C56.5991 35.64 56.1618 35.7253 55.7458 35.896C55.3404 36.056 54.9831 36.2853 54.6738 36.584C54.3644 36.8827 54.1191 37.2347 53.9378 37.64C53.7564 38.0453 53.6658 38.488 53.6658 38.968ZM50.3858 38.968C50.3858 38.072 50.5511 37.24 50.8818 36.472C51.2124 35.6933 51.6711 35.016 52.2578 34.44C52.8444 33.864 53.5431 33.416 54.3538 33.096C55.1751 32.7653 56.0764 32.6 57.0578 32.6C58.0284 32.6 58.9244 32.7653 59.7458 33.096C60.5671 33.416 61.2711 33.864 61.8578 34.44C62.4551 35.016 62.9191 35.6933 63.2498 36.472C63.5804 37.24 63.7458 38.072 63.7458 38.968C63.7458 39.864 63.5804 40.7013 63.2498 41.48C62.9191 42.248 62.4551 42.92 61.8578 43.496C61.2711 44.072 60.5671 44.5253 59.7458 44.856C58.9244 45.176 58.0284 45.336 57.0578 45.336C56.0764 45.336 55.1751 45.176 54.3538 44.856C53.5431 44.5253 52.8444 44.072 52.2578 43.496C51.6711 42.92 51.2124 42.248 50.8818 41.48C50.5511 40.7013 50.3858 39.864 50.3858 38.968ZM65.1826 45L67.2306 32.936H70.3346L72.7506 39.368L75.1506 32.936H78.2546L80.3026 45H77.1826L76.1426 38.056L73.2946 45H72.0466L69.3426 38.056L68.3026 45H65.1826ZM89.1531 35.592H85.4251V37.608H88.9451V40.264H85.4251V42.344H89.1531V45H82.2891V32.936H89.1531V35.592ZM98.0381 36.024C97.6968 35.7467 97.3555 35.544 97.0141 35.416C96.6728 35.2773 96.3421 35.208 96.0221 35.208C95.6168 35.208 95.2861 35.304 95.0301 35.496C94.7741 35.688 94.6461 35.9387 94.6461 36.248C94.6461 36.4613 94.7101 36.6373 94.8381 36.776C94.9661 36.9147 95.1315 37.0373 95.3341 37.144C95.5475 37.24 95.7821 37.3253 96.0381 37.4C96.3048 37.4747 96.5661 37.5547 96.8221 37.64C97.8461 37.9813 98.5928 38.44 99.0621 39.016C99.5421 39.5813 99.7821 40.3227 99.7821 41.24C99.7821 41.8587 99.6755 42.4187 99.4621 42.92C99.2595 43.4213 98.9555 43.8533 98.5501 44.216C98.1555 44.568 97.6648 44.84 97.0781 45.032C96.5021 45.2347 95.8461 45.336 95.1101 45.336C93.5848 45.336 92.1715 44.8827 90.8701 43.976L92.2141 41.448C92.6835 41.864 93.1475 42.1733 93.6061 42.376C94.0648 42.5787 94.5181 42.68 94.9661 42.68C95.4781 42.68 95.8568 42.5627 96.1021 42.328C96.3581 42.0933 96.4861 41.8267 96.4861 41.528C96.4861 41.3467 96.4541 41.192 96.3901 41.064C96.3261 40.9253 96.2195 40.8027 96.0701 40.696C95.9208 40.5787 95.7235 40.472 95.4781 40.376C95.2435 40.28 94.9555 40.1733 94.6141 40.056C94.2088 39.928 93.8088 39.7893 93.4141 39.64C93.0301 39.48 92.6835 39.272 92.3741 39.016C92.0755 38.76 91.8301 38.44 91.6381 38.056C91.4568 37.6613 91.3661 37.1653 91.3661 36.568C91.3661 35.9707 91.4621 35.432 91.6541 34.952C91.8568 34.4613 92.1341 34.0453 92.4861 33.704C92.8488 33.352 93.2861 33.08 93.7981 32.888C94.3208 32.696 94.9021 32.6 95.5421 32.6C96.1395 32.6 96.7635 32.6853 97.4141 32.856C98.0648 33.016 98.6888 33.256 99.2861 33.576L98.0381 36.024Z" fill="black"/>
</svg>
