<svg width="100" height="25" viewBox="0 0 100 25" fill="none" xmlns="http://www.w3.org/2000/svg">
<path d="M0 0.0952148H88.0952L100 12.0952L88.0952 24.0952H0V0.0952148Z" fill="black"/>
<circle cx="10.2756" cy="9.18066" r="2.34961" stroke="white" stroke-width="1.5664"/>
<line x1="10.2757" y1="11.6865" x2="10.2757" y2="17.9521" stroke="white" stroke-width="1.25312"/>
<path d="M23.9595 9.29004L25.6274 13.4697L27.3188 9.29004H28.3149L25.6079 15.7744L22.9634 9.29004H23.9595ZM29.979 9.29004V15.3213H29.0688V9.29004H29.979ZM34.7563 10.1455H32.3384V11.5947H34.686V12.4502H32.3384V14.4658H34.7563V15.3213H31.4282V9.29004H34.7563V10.1455ZM36.2485 9.29004L37.8188 13.3213L39.4595 8.99707L41.0298 13.3213L42.6978 9.29004H43.686L40.9907 15.7041L39.4399 11.4307L37.8228 15.708L35.2603 9.29004H36.2485ZM46.604 12.2783C46.604 11.4294 46.9152 10.7002 47.5376 10.0908C48.1574 9.48145 48.9022 9.17676 49.772 9.17676C50.6313 9.17676 51.3683 9.48405 51.9829 10.0986C52.6001 10.7132 52.9087 11.4515 52.9087 12.3135C52.9087 13.1807 52.5988 13.9163 51.979 14.5205C51.3566 15.1273 50.6053 15.4307 49.7251 15.4307C48.9465 15.4307 48.2472 15.1611 47.6274 14.6221C46.9451 14.0257 46.604 13.2445 46.604 12.2783ZM47.522 12.29C47.522 12.9567 47.7459 13.5049 48.1938 13.9346C48.6392 14.3643 49.1535 14.5791 49.7368 14.5791C50.3696 14.5791 50.9035 14.3604 51.3384 13.9229C51.7733 13.4801 51.9907 12.9411 51.9907 12.3057C51.9907 11.6624 51.7759 11.1234 51.3462 10.6885C50.9191 10.251 50.3905 10.0322 49.7603 10.0322C49.1326 10.0322 48.6027 10.251 48.1704 10.6885C47.7381 11.1208 47.522 11.6546 47.522 12.29ZM54.0532 15.3213V8.87988L58.4517 13.4814V9.29004H59.3618V15.6885L54.9634 11.0986V15.3213H54.0532ZM63.0688 15.3213L64.3384 8.83691L66.4087 13.5244L68.5532 8.83691L69.6938 15.3213H68.7603L68.1782 11.6807L66.3931 15.5986L64.6587 11.6768L64.0103 15.3213H63.0688ZM74.5181 13.8564H71.936L71.2642 15.3213H70.2837L73.2681 8.91113L76.147 15.3213H75.1509L74.5181 13.8564ZM74.147 13.001L73.2524 10.9502L72.3149 13.001H74.147ZM77.8149 12.8721V15.3213H76.9048V9.29004H77.936C78.4412 9.29004 78.8228 9.3252 79.0806 9.39551C79.341 9.46582 79.5701 9.59863 79.7681 9.79395C80.1144 10.1325 80.2876 10.5596 80.2876 11.0752C80.2876 11.6273 80.1027 12.0648 79.7329 12.3877C79.3631 12.7106 78.8644 12.8721 78.2368 12.8721H77.8149ZM77.8149 12.0283H78.1548C78.9907 12.0283 79.4087 11.7067 79.4087 11.0635C79.4087 10.4411 78.9777 10.1299 78.1157 10.1299H77.8149V12.0283Z" fill="white"/>
</svg>
